<svg xmlns="http://www.w3.org/2000/svg" xmlns:xlink="http://www.w3.org/1999/xlink" width="531.89" height="173.28" viewBox="0 0 531.89 173.28">
  <defs>
    <clipPath id="clip-Artboard_2">
      <rect width="531.89" height="173.28"/>
    </clipPath>
  </defs>
  <g id="Artboard_2" data-name="Artboard 2" clip-path="url(#clip-Artboard_2)">
    <rect width="531.89" height="173.28" fill="rgba(96,11,11,0)"/>
    <path id="Caminho_1" data-name="Caminho 1" d="M318.8,284.962c7.418-17.12,13.44-30.293,19.257-42.613a5.531,5.531,0,0,1,3.6-3.2l12.117-2.268c-5.082,13.408-16.626,36.131-24.429,55.951-4.137,10.507-6.927,18.491-7.441,25.547a16.269,16.269,0,0,0,.637,6.344l-1.462.7c-7.13-2.236-10.765-7.355-10.765-14.627a28.3,28.3,0,0,1,1.2-7.314c-5.739,6.286-16.79,15.033-28.1,15.357-10.583.3-14.455-6.183-14.368-14.376.124-11.551,6.668-24.611,15.11-33.81,6.388-6.845,16.328-12.439,24.542-12.362,5.709.053,8.557,2.428,8.469,7.012-.094,4.838-3.074,9.5-7.408,14.153-7.83,8.117-16.519,12.952-25.172,17.26a39.305,39.305,0,0,0-1.14,8.329c-.013,4.462,1.687,6.662,5.5,6.616,9.132-.113,19.635-10.072,27.334-20.984C317.122,288.709,317.982,286.785,318.8,284.962ZM285.739,292c12.2-7.26,21.733-17.138,21.771-24.865.009-1.667-.721-2.941-2.57-2.952C297.372,264.141,288.8,279.975,285.739,292Z" transform="translate(-158 -209)" fill="#19b2ff"/>
    <path id="Caminho_2" data-name="Caminho 2" d="M514.164,296.312c3.579-8.8,9.327-20.731,14.143-30.926a5.648,5.648,0,0,1,3.831-3.2c1.6-.408,12.917-2.319,12.917-2.319-7.435,15.436-13.509,28.393-17.666,38.8-1.689,4.475-2.614,7.932-2.593,9.584a2.62,2.62,0,0,0,3.108,2.805c3.238-.049,8.058-3.412,12.384-8.533,1.006-8.765,5.826-21.261,15.267-31.548,7.575-8.252,17.051-11.975,24.534-12.036,5.653-.047,11.992.942,11.965,6.468-.024,4.769-6.084,9.334-12.534,11.8l-1.108-1c2.56-2.39,4.431-6.149,4.431-8.785,0-2.272-1.159-3.45-3.8-3.45-9.651.05-23.965,24.6-24.067,40.813-.027,4.234,1.82,6.6,5.231,6.558,5.956-.075,11.85-5.17,15.97-9.173.728-.708,2.385-2.634,4.017-4.7a75.909,75.909,0,0,1,5.682-11.916c11.462-20.227,27.072-26.624,42.633-26.047,4.706.174,9.121,1.324,10.994,2.89a313.968,313.968,0,0,0-15.734,39.546c-1.343,4.369-4.347,17.533-2.192,22.847l-1.384.583c-6.135-1.248-10.413-5.382-10.244-12.677a41.518,41.518,0,0,1,1.378-8.784l-.24-.133c-6.751,9.633-15.372,15.256-22.861,15.26-6.967,0-10.128-4.5-10.128-10.55,0-.643.032-1.284.08-1.924-6.079,6.556-14.728,12.284-23.77,12.552-8.67.257-12.918-4.007-14.021-9.916-5.8,5.613-12.861,9.679-19.747,9.83-6.657.145-10.075-3.22-10.076-8.68C510.559,307.19,511.907,301.863,514.164,296.312ZM592.1,307.294c-.051,2.489,1.448,3.584,4.062,2.933,7.47-1.865,15.513-14.319,20.861-26.723,3.418-7.924,7.782-16.718,8.71-18.643a13.709,13.709,0,0,0-9.216,1.276C604.417,271.826,592.324,296.252,592.1,307.294Z" transform="translate(-158 -209)" fill="#19b2ff"/>
    <path id="Caminho_3" data-name="Caminho 3" d="M375.925,258.286c5.709.053,8.557,2.428,8.469,7.012-.094,4.838-3.074,9.5-7.409,14.153-7.83,8.117-16.518,12.952-25.172,17.26a37.44,37.44,0,0,0-1.14,8.318c.028,4.273,1.818,6.681,6.253,6.627,8.068-.1,19.105-6.951,30.061-21.51,3.663-9.823,7.268-19.46,9.073-23.9a21.164,21.164,0,0,0-7.426.9l-.569-1.255a17.779,17.779,0,0,1,10.382-5.194c13.048-26.976,31.744-30.419,46.86-30.546,11.911-.1,19.31,3.72,19.261,9.925-.033,3.994-5.091,9.818-12.33,13.288l-.911-.919c3.174-3.352,4.346-6.571,3.953-10.6-.465-4.786-6.018-7.9-14.325-7.567-13.316.53-22.437,10.525-28.933,25.993,0,0,21.6-.018,24.576-.035a79.5,79.5,0,0,0,10.962-.6l-1.383,3.759c-.644.182-1.641.383-2.583.693-11.212,3.7-22.645,27.031-22.641,40.985,0,3.959.923,6.827,4.881,6.816,9.115-.026,22.789-23.787,22.065-43.91-.045-1.256,1.117-1.849,4.679-2.356,5.791-1.234,11.1-2.6,16.076-3.893,3.576-.931,7.188-1.988,9.868-2.011,3.788-.034,5.528,1.255,5.628,4.434.106,3.362-2.559,10.556-5.9,18.117l.2.123c8.437-13.124,18.509-22.956,28.64-22.922,5.409.018,7.884,2.872,8.09,6.09.417,6.5-6.371,18.426-10.2,26.618-2.465,5.267-8.687,18.624-8.542,26.279.045,2.372.154,4.466.985,6.06l-1.38.785c-6.906-1.688-10.915-6.192-11.045-13.646-.2-11.557,14.64-34.82,15.511-40.845.327-1.545-.115-2.634-1.728-2.624-4.619.027-16.15,14.819-21.272,23.76-4.327,7.552-7.645,14.767-12.962,25.916l-12.423.011c.046-.341,11.3-26.753,17.78-44.824,1.064-2.97,1.764-6.82-1.763-6.318-1.787.254-5.414.9-9.162,1.581-.346,6.074-2.238,12.159-5.171,19.289-5.1,12.393-18.448,31.238-34.331,31.169-8.276-.035-12.025-4.452-12.643-10.869-1.4-14.557,10.281-36.619,24.193-42.793-5.322,1.227-14.8,1.009-21.458,1.009-4.149,10.5-9.459,25.732-15.766,43.269S381.8,337.6,366.524,336.726l-.61-1.013c5.215-3.985,7.722-10.779,11.136-19.254,1.152-2.86,3.144-8.128,5.44-14.264-9.123,9.552-19.708,16.308-31.263,16.639-10.808.309-15.039-6.413-14.954-14.376.124-11.551,6.669-24.611,15.11-33.81C357.77,263.8,367.711,258.209,375.925,258.286ZM352.972,292c12.2-7.26,21.732-17.138,21.77-24.865.007-1.667-.721-2.941-2.57-2.952C364.6,264.141,356.036,279.975,352.972,292Z" transform="translate(-158 -209)" fill="#19b2ff"/>
    <path id="Caminho_4" data-name="Caminho 4" d="M545.251,250.426c3.478-.066,6.929-3.241,7.708-7.093s-1.409-6.921-4.888-6.855-6.929,3.241-7.707,7.092S541.772,250.492,545.251,250.426Z" transform="translate(-158 -209)" fill="#19b2ff"/>
    <path id="Caminho_5" data-name="Caminho 5" d="M420.945,360.98c-125.69,0-253.36,1.515-253.36,3.385s127.67,3.385,253.36,3.385,253.36-1.516,253.36-3.385S546.634,360.98,420.945,360.98Z" transform="translate(-158 -209)" fill="#19b2ff"/>
    <path id="Caminho_6" data-name="Caminho 6" d="M217.971,271.35l.788-.6a15.825,15.825,0,0,1-1.512-7.2c.416-16.359,17.688-25.655,44.733-25.655l14.947-.005c-8.705,5.081-15.971,11.784-21.557,24.407-2.41,5.448-13.831,34.734-18.5,47.937-5.794,15.587-9.488,22.717-14.1,25.318l.732,1.4c12.964.769,20.668-5.825,25.667-18.06,4.727-11.574,10.979-29.941,14.09-38.131,9.969-26.256,14.33-37.375,22.232-42.872,11,0,21.716-.008,21.745-.011,11.879-.351,16.953-3.3,20.618-7.9l-.814-1.006c-2.954,1.544-9.43,1.866-14.884,1.907h-53.7c-30.166,0-48.668,9.867-51.7,24.663C205.3,262.636,209.249,270.438,217.971,271.35Z" transform="translate(-158 -209)" fill="#19b2ff"/>
  </g>
</svg>
